<svg version="1.1" xmlns="http://www.w3.org/2000/svg" xmlns:xlink="http://www.w3.org/1999/xlink" width="48px" height="48px" viewBox="0,0,256,256"><g fill="none" fill-rule="nonzero" stroke="none" stroke-width="1" stroke-linecap="butt" stroke-linejoin="miter" stroke-miterlimit="10" stroke-dasharray="" stroke-dashoffset="0" font-family="none" font-weight="none" font-size="none" text-anchor="none" style="mix-blend-mode: normal"><g transform="scale(5.33333,5.33333)"><path d="M34,23c-1.7,0 -3,-1.3 -3,-3c0,-1.7 1.3,-3 3,-3c2.8,0 3,-1 3,-1.7c0,-0.5 -0.4,-1.3 -2,-1.3c-1.7,0 -2.9,1.1 -3,1.2c-1.2,1.2 -3.1,1.1 -4.2,-0.1c-1.1,-1.2 -1.1,-3.1 0.1,-4.2c0.3,-0.4 3.1,-2.9 7.1,-2.9c5,0 8,3.6 8,7c0,4.9 -3.5,8 -9,8z" fill="#339af0"></path><path d="M34,17c-1.7,0 -3,1.3 -3,3c0,1.7 1.3,3 3,3c3.7,0 4,1.1 4,1.5c0,0.4 0,1.5 -3,1.5c-2.2,0 -3.7,-0.6 -3.8,-0.7c-1.5,-0.7 -3.3,0 -3.9,1.5c-0.7,1.5 0,3.3 1.5,4c0.3,0.2 2.7,1.2 6.2,1.2c6.6,0 9,-4 9,-7.5c0,-2.3 -1,-7.5 -10,-7.5z" fill="#339af0"></path><path d="M29,41h-13c-1.7,0 -3,-1.3 -3,-3c0,-1.7 1.3,-3 3,-3h13c1.7,0 3,1.3 3,3c0,1.7 -1.3,3 -3,3z" fill="#fcc419"></path><path d="M11.5,30c-1.9,0 -3.5,-1.6 -3.5,-3.5v-16c0,-1.9 1.6,-3.5 3.5,-3.5c1.9,0 3.5,1.6 3.5,3.5v16c0,1.9 -1.6,3.5 -3.5,3.5z" fill="#fa5252"></path><path d="M10,7.3l-4.6,2.5c-0.9,0.4 -1.4,1.4 -1.4,2.4c0,1.6 1.1,2.8 2.4,2.8h3.5zM16,30h-9c-1.7,0 -3,-1.3 -3,-3c0,-1.7 1.3,-3 3,-3h9c1.7,0 3,1.3 3,3c0,1.7 -1.3,3 -3,3z" fill="#fa5252"></path><path d="M16,41c-0.9,0 -1.7,-0.4 -2.3,-1.1c-1.1,-1.3 -0.9,-3.2 0.4,-4.2c2.4,-2 4.5,-3.6 6.1,-4.8c4.3,-3.3 4.8,-3.8 4.8,-5.4c0,-0.4 -0.1,-2.5 -3,-2.5c-2.3,0 -4.2,1.4 -4.2,1.4c-1.3,1 -3.2,0.8 -4.2,-0.5c-1,-1.3 -0.8,-3.2 0.5,-4.2c0.3,-0.3 3.5,-2.6 7.8,-2.6c5.8,0 9,4.4 9,8.5c0,4.7 -2.7,6.8 -7.2,10.2c-1.6,1.2 -3.6,2.7 -5.9,4.6c-0.4,0.4 -1.1,0.6 -1.8,0.6z" fill="#fcc419"></path></g></g></svg>